<?xml version="1.0" encoding="UTF-8"?>
<svg xmlns="http://www.w3.org/2000/svg" xmlns:xlink="http://www.w3.org/1999/xlink" width="3001" height="3001" viewBox="0 0 3001 3001">
<path fill-rule="evenodd" fill="rgb(0%, 0%, 0%)" fill-opacity="1" d="M 837.734375 1658.308594 L 1149.628906 1658.308594 C 1161.570312 1658.308594 1171.28125 1648.609375 1171.28125 1636.660156 C 1171.28125 1624.710938 1161.570312 1615.011719 1149.628906 1615.011719 L 837.734375 1615.011719 C 825.789062 1615.011719 816.089844 1624.710938 816.089844 1636.660156 C 816.089844 1648.609375 825.789062 1658.308594 837.734375 1658.308594 "/>
<path fill-rule="evenodd" fill="rgb(0%, 0%, 0%)" fill-opacity="1" d="M 1068.921875 1485.210938 C 1095.53125 1515.449219 1131.21875 1537.511719 1171.710938 1547.121094 C 1183.328125 1549.878906 1195.011719 1542.679688 1197.769531 1531.058594 C 1200.53125 1519.429688 1193.339844 1507.761719 1181.710938 1504.988281 C 1154.058594 1498.429688 1129.28125 1484.421875 1109.589844 1465.210938 C 1233.589844 1401.941406 1369.351562 1312.988281 1452.339844 1253.449219 C 1452.78125 1253.140625 1453.199219 1252.808594 1453.609375 1252.46875 C 1462.511719 1245.019531 1474.460938 1242.351562 1485.691406 1245.28125 C 1496.898438 1248.210938 1506 1256.371094 1510.128906 1267.191406 C 1518.859375 1290.898438 1530.648438 1313.121094 1545.03125 1333.378906 C 1551.949219 1343.121094 1565.46875 1345.421875 1575.21875 1338.5 C 1584.960938 1331.589844 1587.261719 1318.058594 1580.339844 1308.320312 C 1568.121094 1291.109375 1558.109375 1272.21875 1550.710938 1252.078125 C 1550.679688 1252.011719 1550.648438 1251.929688 1550.621094 1251.859375 C 1541.519531 1227.921875 1521.410156 1209.859375 1496.640625 1203.390625 C 1472.078125 1196.96875 1445.960938 1202.71875 1426.371094 1218.808594 C 1301.03125 1308.660156 1052.941406 1468.71875 916.078125 1495.03125 C 886.910156 1500.628906 864.089844 1518.191406 847.546875 1542.480469 C 825.328125 1575.109375 814.804688 1620.371094 814.804688 1660.25 C 814.804688 1685.710938 814.804688 1712.03125 814.804688 1733.429688 C 814.804688 1751.371094 821.933594 1768.578125 834.617188 1781.269531 C 847.304688 1793.949219 864.511719 1801.078125 882.453125 1801.078125 C 951.925781 1801.078125 997.464844 1801.078125 1146.011719 1801.078125 C 1157.960938 1801.078125 1167.660156 1791.378906 1167.660156 1779.429688 C 1167.660156 1767.480469 1157.960938 1757.78125 1146.011719 1757.78125 C 997.464844 1757.78125 951.925781 1757.78125 882.453125 1757.78125 C 875.996094 1757.78125 869.800781 1755.21875 865.234375 1750.648438 C 860.667969 1746.089844 858.101562 1739.890625 858.101562 1733.429688 L 858.101562 1660.25 C 858.101562 1633.699219 863.585938 1604.070312 875.730469 1579.859375 C 886.234375 1558.929688 901.707031 1541.878906 924.253906 1537.539062 C 964.847656 1529.738281 1014.988281 1510.660156 1068.921875 1485.210938 "/>
<path fill-rule="evenodd" fill="rgb(0%, 0%, 0%)" fill-opacity="1" d="M 1444.300781 1324.609375 L 1408.679688 1271.789062 C 1401.988281 1261.878906 1388.53125 1259.261719 1378.621094 1265.949219 C 1368.71875 1272.628906 1366.101562 1286.089844 1372.78125 1296 L 1408.398438 1348.820312 C 1415.078125 1358.71875 1428.550781 1361.339844 1438.449219 1354.660156 C 1448.359375 1347.980469 1450.980469 1334.511719 1444.300781 1324.609375 "/>
<path fill-rule="evenodd" fill="rgb(0%, 0%, 0%)" fill-opacity="1" d="M 1348.78125 1384.96875 L 1312.488281 1331.160156 C 1305.808594 1321.25 1292.351562 1318.628906 1282.441406 1325.308594 C 1272.539062 1332 1269.921875 1345.460938 1276.601562 1355.371094 L 1312.890625 1409.179688 C 1319.570312 1419.078125 1333.03125 1421.699219 1342.941406 1415.019531 C 1352.839844 1408.339844 1355.460938 1394.871094 1348.78125 1384.96875 "/>
<path fill-rule="evenodd" fill="rgb(0%, 0%, 0%)" fill-opacity="1" d="M 1252.78125 1434.449219 L 1219.410156 1384.96875 C 1212.730469 1375.058594 1199.261719 1372.441406 1189.351562 1379.121094 C 1179.449219 1385.800781 1176.828125 1399.269531 1183.511719 1409.179688 L 1216.878906 1458.660156 C 1223.558594 1468.558594 1237.03125 1471.179688 1246.929688 1464.5 C 1256.839844 1457.820312 1259.460938 1444.351562 1252.78125 1434.449219 "/>
<path fill-rule="evenodd" fill="rgb(0%, 0%, 0%)" fill-opacity="1" d="M 1813.28125 1218.691406 C 1687.789062 1308.660156 1439.699219 1468.710938 1302.839844 1495.03125 C 1273.671875 1500.628906 1250.851562 1518.191406 1234.308594 1542.480469 C 1212.089844 1575.109375 1201.570312 1620.371094 1201.570312 1660.25 C 1201.570312 1685.710938 1201.570312 1712.03125 1201.570312 1733.429688 C 1201.570312 1751.371094 1208.691406 1768.578125 1221.378906 1781.269531 C 1234.070312 1793.949219 1251.269531 1801.078125 1269.210938 1801.078125 C 1428.941406 1801.078125 1958.53125 1801.078125 2118.25 1801.078125 C 2155.609375 1801.078125 2185.898438 1770.789062 2185.898438 1733.429688 C 2185.898438 1665.558594 2185.898438 1539.589844 2185.519531 1473.960938 C 2185.460938 1440.589844 2160.941406 1412.300781 2127.898438 1407.511719 C 2039.941406 1394.289062 1967.378906 1333.480469 1937.46875 1252.078125 C 1937.441406 1252.011719 1937.410156 1251.929688 1937.390625 1251.859375 C 1928.289062 1227.921875 1908.171875 1209.859375 1883.398438 1203.390625 C 1858.839844 1196.96875 1832.71875 1202.71875 1813.128906 1218.808594 Z M 1839.109375 1253.449219 C 1839.539062 1253.140625 1839.960938 1252.808594 1840.371094 1252.46875 C 1849.269531 1245.019531 1861.230469 1242.351562 1872.449219 1245.28125 C 1883.660156 1248.210938 1892.761719 1256.371094 1896.898438 1267.191406 C 1932.210938 1363.109375 2017.769531 1434.738281 2121.578125 1450.351562 C 2121.621094 1450.351562 2121.648438 1450.359375 2121.691406 1450.359375 C 2133.480469 1452.070312 2142.21875 1462.171875 2142.21875 1474.078125 C 2142.21875 1474.121094 2142.21875 1474.160156 2142.21875 1474.210938 C 2142.601562 1539.769531 2142.601562 1665.628906 2142.601562 1733.429688 C 2142.601562 1746.878906 2131.699219 1757.78125 2118.25 1757.78125 C 1958.53125 1757.78125 1428.941406 1757.78125 1269.210938 1757.78125 C 1262.761719 1757.78125 1256.558594 1755.21875 1252 1750.648438 C 1247.429688 1746.089844 1244.871094 1739.890625 1244.871094 1733.429688 L 1244.871094 1660.25 C 1244.871094 1633.699219 1250.351562 1604.070312 1262.488281 1579.859375 C 1273 1558.929688 1288.46875 1541.878906 1311.019531 1537.539062 C 1452.460938 1510.351562 1709.808594 1346.199219 1839.109375 1253.449219 "/>
<path fill-rule="evenodd" fill="rgb(0%, 0%, 0%)" fill-opacity="1" d="M 1224.5 1658.308594 L 2072.300781 1658.308594 C 2084.25 1658.308594 2093.949219 1648.609375 2093.949219 1636.660156 C 2093.949219 1624.710938 2084.25 1615.011719 2072.300781 1615.011719 L 1224.5 1615.011719 C 1212.550781 1615.011719 1202.851562 1624.710938 1202.851562 1636.660156 C 1202.851562 1648.609375 1212.550781 1658.308594 1224.5 1658.308594 "/>
<path fill-rule="evenodd" fill="rgb(0%, 0%, 0%)" fill-opacity="1" d="M 1910.320312 1624.910156 C 1856.359375 1541.410156 1778.480469 1512.441406 1713.890625 1504.539062 C 1686.660156 1501.109375 1659.070312 1501.921875 1632.089844 1506.941406 C 1623.148438 1508.308594 1613.820312 1509.171875 1604.289062 1509.171875 C 1576.921875 1509.171875 1551.210938 1502.050781 1528.898438 1489.550781 C 1518.480469 1483.710938 1505.269531 1487.429688 1499.429688 1497.859375 C 1493.589844 1508.28125 1497.320312 1521.480469 1507.738281 1527.320312 C 1536.308594 1543.328125 1569.238281 1552.460938 1604.289062 1552.460938 C 1616.179688 1552.460938 1627.820312 1551.410156 1639.171875 1549.648438 C 1639.390625 1549.621094 1639.609375 1549.578125 1639.828125 1549.539062 C 1662.480469 1545.308594 1685.648438 1544.621094 1708.511719 1547.5 C 1708.539062 1547.511719 1708.570312 1547.511719 1708.589844 1547.511719 C 1762.898438 1554.148438 1828.578125 1578.191406 1873.960938 1648.410156 C 1880.441406 1658.441406 1893.859375 1661.320312 1903.890625 1654.839844 C 1913.929688 1648.359375 1916.808594 1634.941406 1910.320312 1624.910156 "/>
<path fill-rule="evenodd" fill="rgb(0%, 0%, 0%)" fill-opacity="1" d="M 1831.058594 1324.609375 L 1795.441406 1271.789062 C 1788.761719 1261.878906 1775.289062 1259.261719 1765.378906 1265.949219 C 1755.480469 1272.628906 1752.859375 1286.089844 1759.539062 1296 L 1795.160156 1348.820312 C 1801.839844 1358.71875 1815.308594 1361.339844 1825.21875 1354.660156 C 1835.121094 1347.980469 1837.738281 1334.511719 1831.058594 1324.609375 "/>
<path fill-rule="evenodd" fill="rgb(0%, 0%, 0%)" fill-opacity="1" d="M 1735.550781 1384.96875 L 1699.261719 1331.160156 C 1692.578125 1321.25 1679.109375 1318.628906 1669.199219 1325.308594 C 1659.300781 1332 1656.679688 1345.460938 1663.359375 1355.371094 L 1699.648438 1409.179688 C 1706.328125 1419.078125 1719.789062 1421.699219 1729.699219 1415.019531 C 1739.609375 1408.339844 1742.230469 1394.871094 1735.539062 1384.96875 "/>
<path fill-rule="evenodd" fill="rgb(0%, 0%, 0%)" fill-opacity="1" d="M 1639.539062 1434.449219 L 1606.171875 1384.96875 C 1599.488281 1375.058594 1586.019531 1372.441406 1576.109375 1379.121094 C 1566.210938 1385.800781 1563.589844 1399.269531 1570.269531 1409.179688 L 1603.640625 1458.660156 C 1610.320312 1468.558594 1623.789062 1471.179688 1633.699219 1464.5 C 1643.601562 1457.820312 1646.21875 1444.351562 1639.539062 1434.449219 "/>
</svg>
